<svg width="16" height="16" viewBox="0 0 16 16" fill="none" xmlns="http://www.w3.org/2000/svg">
<g clip-path="url(#clip0_63_18533)">
<path d="M8.00016 1.33301C5.42016 1.33301 3.3335 3.41967 3.3335 5.99967C3.3335 9.49967 8.00016 14.6663 8.00016 14.6663C8.00016 14.6663 12.6668 9.49967 12.6668 5.99967C12.6668 3.41967 10.5802 1.33301 8.00016 1.33301ZM4.66683 5.99967C4.66683 4.15967 6.16016 2.66634 8.00016 2.66634C9.84016 2.66634 11.3335 4.15967 11.3335 5.99967C11.3335 7.91967 9.4135 10.793 8.00016 12.5863C6.6135 10.8063 4.66683 7.89967 4.66683 5.99967Z" fill="white"/>
<path d="M8.00016 7.66634C8.92064 7.66634 9.66683 6.92015 9.66683 5.99967C9.66683 5.0792 8.92064 4.33301 8.00016 4.33301C7.07969 4.33301 6.3335 5.0792 6.3335 5.99967C6.3335 6.92015 7.07969 7.66634 8.00016 7.66634Z" fill="white"/>
</g>
<defs>
<clipPath id="clip0_63_18533">
<rect width="16" height="16" fill="white"/>
</clipPath>
</defs>
</svg>
